<svg width="80" height="80" viewBox="0 0 80 80" fill="none" xmlns="http://www.w3.org/2000/svg">
<path d="M40.5357 59.6689H15.4452V22.5783L36.7451 4.05017L57.534 21.8189V45.1065C57.534 45.7656 58.0681 46.3005 58.728 46.3005C59.3879 46.3005 59.922 45.7656 59.922 45.1065V23.8599L67.692 30.5011C67.9172 30.693 68.1927 30.7869 68.4673 30.7869C68.804 30.7869 69.1391 30.6444 69.3755 30.369C69.8046 29.8675 69.7449 29.1144 69.2434 28.6854L37.5141 1.56659C37.0635 1.18131 36.4004 1.18529 35.9546 1.57296L4.88838 28.5962C4.39087 29.0293 4.33833 29.7831 4.77137 30.2806C5.2044 30.7781 5.95744 30.8299 6.45575 30.3976L13.0571 24.6551V60.8621C13.0571 61.5212 13.5913 62.0561 14.2512 62.0561H40.5357C41.1956 62.0561 41.7298 61.5212 41.7298 60.8621C41.7298 60.203 41.1956 59.6689 40.5357 59.6689Z" fill="white" fill-opacity="0.88"/>
<path d="M73.6057 72.2738L46.3109 41.2824C46.6445 38.0275 45.7808 35.3942 43.7668 33.6589C41.3175 31.5487 39.0656 31.9499 35.6586 32.5548C35.212 32.6344 34.7392 32.7188 34.2345 32.8032C32.9489 33.0189 31.8648 31.7517 30.6867 30.1994C29.8524 29.1001 29.1312 28.1521 28.0049 28.4482C26.9079 28.7379 26.6524 29.9893 26.4988 31.1387C25.8198 36.2301 26.1446 43.3035 29.2912 46.4836C31.8656 49.0945 35.4206 49.4607 37.2116 49.4607C37.4321 49.4607 37.6136 49.4543 37.7752 49.4472L69.0596 76.8207C70.0283 77.7767 71.2295 78.3244 72.3583 78.3236C72.367 78.3236 72.3766 78.3236 72.3854 78.3236C73.1631 78.318 73.8644 78.0362 74.3619 77.53C75.6188 76.2484 75.2845 73.9463 73.6057 72.2738ZM28.8327 31.7071C29.9694 33.2036 31.8528 35.6251 34.627 35.1586C35.1404 35.0734 35.622 34.9875 36.0757 34.9071C39.45 34.3061 40.695 34.1644 42.2074 35.4691C43.6371 36.7013 44.2094 38.6062 43.9316 41.1216L37.6765 47.0599C36.574 47.1077 33.2076 47.0543 30.9899 44.8064C28.6679 42.4573 28.2461 36.4267 28.8327 31.7071ZM44.9959 43.403L47.4779 46.2209L42.9207 50.7765L39.9587 48.1847L44.9959 43.403ZM72.6576 75.8567C72.6082 75.9061 72.4928 75.9308 72.3591 75.9347C71.9897 75.9347 71.3465 75.7214 70.6843 75.0719L44.7221 52.3526L49.0596 48.0167L71.8409 73.8826C71.86 73.9041 71.8799 73.9256 71.9006 73.9455C72.7189 74.7495 72.8574 75.6537 72.6576 75.8567Z" fill="white" fill-opacity="0.88"/>
</svg>
