<svg width="80" height="80" viewBox="0 0 80 80" fill="none" xmlns="http://www.w3.org/2000/svg">
<path d="M74.2321 17.5237L61.8808 5.17235C61.4154 4.70704 60.6619 4.70704 60.1966 5.17235L38.2214 27.1467L24.9553 14.0942C24.945 14.0839 24.9315 14.0768 24.9204 14.0672C24.8767 14.0275 24.8298 13.9918 24.7798 13.9585C24.756 13.9426 24.7338 13.9251 24.7091 13.9108C24.6504 13.8775 24.5877 13.8513 24.5225 13.8274C24.5059 13.8219 24.4916 13.8116 24.4749 13.806L6.50726 8.1921C6.08641 8.06108 5.62349 8.17384 5.30984 8.48669C4.99619 8.80034 4.88264 9.26168 5.01525 9.68411L10.6299 27.651C10.6641 27.7597 10.7165 27.8598 10.7792 27.9535C10.7991 27.9837 10.8229 28.0083 10.8451 28.0361C10.8745 28.0726 10.8983 28.1123 10.9317 28.1449L24.1843 41.1839L5.17247 60.1965C4.70716 60.6618 4.70716 61.4153 5.17247 61.8806L17.5246 74.2336C17.7478 74.4567 18.0511 74.5822 18.3671 74.5822C18.6831 74.5822 18.9857 74.4567 19.2096 74.2336L38.4175 55.0256L53.9586 70.1292C54.1571 70.3205 54.4064 70.4134 54.6613 70.4412C56.4638 72.1127 58.7887 73.0378 61.2614 73.0378C63.8595 73.0378 66.3028 72.0261 68.1394 70.1887C71.8817 66.4464 71.9238 60.3918 68.28 56.5883C68.222 56.3906 68.1188 56.208 67.9679 56.0627L52.3816 41.0608L74.2329 19.2087C74.6974 18.7426 74.6974 17.989 74.2321 17.5237ZM22.647 15.7316L21.7569 18.7569L17.6072 19.9773C17.2189 20.0917 16.9148 20.395 16.8005 20.7841L15.5808 24.9329L12.5547 25.8231L7.96751 11.1444L22.647 15.7316ZM18.3663 71.7069L7.69832 61.0382L12.1863 56.5502L17.5199 61.8838C17.7525 62.1165 18.0574 62.2324 18.3623 62.2324C18.6673 62.2324 18.9722 62.1165 19.2048 61.8838C19.6701 61.4185 19.6701 60.665 19.2048 60.1996L13.8712 54.866L18.2416 50.4956L23.5752 55.8292C23.8079 56.0619 24.1128 56.1778 24.4177 56.1778C24.7226 56.1778 25.0276 56.0619 25.2602 55.8292C25.7255 55.3639 25.7255 54.6104 25.2602 54.145L19.9266 48.8115L25.8891 42.849L36.7095 53.3653L18.3663 71.7069ZM66.4529 68.5038C63.7873 71.1678 59.5701 71.3496 56.6893 69.0556L67.0055 58.7394C69.2995 61.621 69.1177 65.8397 66.4529 68.5038ZM54.7756 67.6017L26.6331 40.2509L14.0459 27.8669L16.8767 27.0348C17.265 26.9204 17.5691 26.6171 17.6834 26.228L18.9039 22.0791L23.0536 20.8587C23.4418 20.7444 23.746 20.441 23.8603 20.0519L24.7036 17.1862L49.8319 41.9096L65.442 56.9361L54.7756 67.6017ZM50.6736 39.3996L39.9191 28.8174L46.0324 22.7041L51.366 28.0377C51.5987 28.2703 51.9036 28.3862 52.2085 28.3862C52.5134 28.3862 52.8183 28.2703 53.051 28.0377C53.5163 27.5731 53.5163 26.818 53.051 26.3535L47.7174 21.0199L52.6833 16.0539L58.0169 21.3875C58.2496 21.6202 58.5545 21.7361 58.8594 21.7361C59.1643 21.7361 59.4692 21.6202 59.7019 21.3875C60.1672 20.923 60.1672 20.1679 59.7019 19.7034L54.3683 14.3698L61.0399 7.6982L71.7063 18.3662L50.6736 39.3996Z" fill="white" fill-opacity="0.88"/>
</svg>
