<svg width="80" height="80" viewBox="0 0 80 80" fill="none" xmlns="http://www.w3.org/2000/svg">
<path d="M40.23 46.0255C24.684 46.0255 12.0359 58.6745 12.0359 74.2228C12.0359 74.8829 12.5708 75.4186 13.2317 75.4186H67.2283C67.8883 75.4186 68.424 74.8829 68.424 74.2228C68.424 58.6745 55.7767 46.0255 40.23 46.0255ZM14.4546 73.027C15.0811 59.3505 26.4028 48.4171 40.23 48.4171C54.0572 48.4171 65.3796 59.3505 66.0054 73.027H14.4546Z" fill="white" fill-opacity="0.88"/>
<path d="M39.7604 10.6655C30.8096 10.6655 23.5273 17.9478 23.5273 26.8986C23.5273 35.8494 30.8096 43.1317 39.7604 43.1317C48.712 43.1317 55.9935 35.8494 55.9935 26.8986C55.9935 17.9478 48.7112 10.6655 39.7604 10.6655ZM39.7604 40.7402C32.1282 40.7402 25.9189 34.5309 25.9189 26.8986C25.9189 19.2664 32.1282 13.0571 39.7604 13.0571C47.3927 13.0571 53.602 19.2664 53.602 26.8986C53.602 34.5309 47.3927 40.7402 39.7604 40.7402Z" fill="white" fill-opacity="0.88"/>
<path d="M20.0396 35.7849C20.7005 35.7849 21.2354 35.25 21.2354 34.5891V19.1142C21.2354 19.0376 21.2266 18.9635 21.2131 18.8909C24.417 11.462 31.6195 6.69081 39.7612 6.69081C48.0487 6.69081 55.3717 11.635 58.4839 19.2991V34.499C57.481 36.9687 56.0246 39.1897 54.1392 41.0997C53.6753 41.5701 53.6801 42.3266 54.1504 42.7906C54.3832 43.021 54.6869 43.1358 54.9906 43.1358C55.2991 43.1358 55.6076 43.017 55.8412 42.7802C57.8501 40.745 59.4246 38.3925 60.539 35.7857H61.3793C66.3051 35.7857 70.3125 31.7783 70.3125 26.8524C70.3125 21.9266 66.3051 17.9192 61.3793 17.9192H60.488C56.8983 9.62605 48.8523 4.30005 39.7612 4.30005C30.6653 4.30005 22.6185 9.62525 19.0304 17.9192H18.34C13.4142 17.9192 9.40674 21.9266 9.40674 26.8524C9.40674 31.7783 13.4142 35.7857 18.34 35.7857H20.0396V35.7849ZM67.921 26.8516C67.921 30.4589 64.9857 33.3934 61.3793 33.3934H60.8754V20.3099H61.3793C64.9865 20.3099 67.921 23.2444 67.921 26.8516ZM11.7983 26.8516C11.7983 23.2444 14.7327 20.3099 18.34 20.3099H18.8438V33.3934H18.34C14.7327 33.3934 11.7983 30.4589 11.7983 26.8516Z" fill="white" fill-opacity="0.88"/>
</svg>
