<svg width="80" height="80" viewBox="0 0 80 80" fill="none" xmlns="http://www.w3.org/2000/svg">
<path d="M44.3327 39.7803C43.7469 39.481 43.0257 39.7119 42.7256 40.2994L34.7264 55.934C34.4263 56.5214 34.6587 57.241 35.2454 57.5411C35.4197 57.6303 35.6052 57.6725 35.7882 57.6725C36.2221 57.6725 36.6408 57.4353 36.8517 57.0229L44.8501 41.3883C45.1526 40.8 44.9202 40.0812 44.3327 39.7803Z" fill="white" fill-opacity="0.88"/>
<path d="M52.7028 39.1834C52.2363 38.7177 51.4809 38.7177 51.0144 39.1834C50.5479 39.649 50.5479 40.406 51.0144 40.8717L58.6427 48.4976L51.0144 56.1235C50.5479 56.5891 50.5479 57.3453 51.0144 57.8118C51.2476 58.045 51.5533 58.1613 51.859 58.1613C52.1647 58.1613 52.4703 58.045 52.7036 57.8118L61.1772 49.3414C61.4009 49.1177 61.5266 48.8136 61.5266 48.4968C61.5266 48.18 61.4009 47.8767 61.1772 47.6522L52.7028 39.1834Z" fill="white" fill-opacity="0.88"/>
<path d="M28.5858 39.1841C28.1201 38.7176 27.3639 38.7176 26.8974 39.1841L18.4254 47.6537C18.2017 47.8774 18.0759 48.1815 18.0759 48.4983C18.0759 48.8151 18.2017 49.1184 18.4254 49.3429L26.8974 57.8125C27.1307 58.0458 27.4363 58.162 27.742 58.162C28.0477 58.162 28.3533 58.0458 28.5866 57.8125C29.053 57.3461 29.053 56.5906 28.5866 56.1242L20.9599 48.4983L28.5866 40.8724C29.0522 40.406 29.0522 39.6505 28.5858 39.1841Z" fill="white" fill-opacity="0.88"/>
<path d="M76.3176 6.69775H3.28436C2.62446 6.69775 2.09033 7.23188 2.09033 7.89178V71.7111C2.09033 72.3702 2.62446 72.9051 3.28436 72.9051H76.3176C76.9767 72.9051 77.5116 72.3702 77.5116 71.7111V7.89178C77.5116 7.23188 76.9767 6.69775 76.3176 6.69775ZM75.1236 9.08581V24.1003H4.47839V9.08581H75.1236ZM4.47839 70.5171V26.4884H75.1236V70.5171H4.47839Z" fill="white" fill-opacity="0.88"/>
<path d="M10.7956 17.3939H16.2802C16.9401 17.3939 17.4742 16.8598 17.4742 16.1999C17.4742 15.54 16.9401 15.0059 16.2802 15.0059H10.7956C10.1357 15.0059 9.60156 15.54 9.60156 16.1999C9.60156 16.8598 10.1357 17.3939 10.7956 17.3939Z" fill="white" fill-opacity="0.88"/>
<path d="M22.548 17.3939H28.0326C28.6925 17.3939 29.2266 16.8598 29.2266 16.1999C29.2266 15.54 28.6925 15.0059 28.0326 15.0059H22.548C21.8881 15.0059 21.354 15.54 21.354 16.1999C21.354 16.8598 21.8889 17.3939 22.548 17.3939Z" fill="white" fill-opacity="0.88"/>
</svg>
